<?xml version="1.0" encoding="UTF-8" standalone="no"?>
<!DOCTYPE svg PUBLIC "-//W3C//DTD SVG 1.1//EN"
 "http://www.w3.org/Graphics/SVG/1.1/DTD/svg11.dtd">
<!-- Generated by graphviz version 3.0.0 (20220226.1711)
 -->
<!-- Title: dependencies Pages: 1 -->
<svg width="1823pt" height="247pt"
 viewBox="0.00 0.00 1823.00 246.80" xmlns="http://www.w3.org/2000/svg" xmlns:xlink="http://www.w3.org/1999/xlink">
<g id="graph0" class="graph" transform="scale(1 1) rotate(0) translate(4 242.8)">
<title>dependencies</title>
<polygon fill="white" stroke="transparent" points="-4,4 -4,-242.8 1819,-242.8 1819,4 -4,4"/>
<text text-anchor="middle" x="907.5" y="-8.2" font-family="sans-serif" font-size="14.00">dependencies</text>
<g id="clust1" class="cluster">
<title>cluster_SalaryModule</title>
<polygon fill="none" stroke="black" stroke-dasharray="1,5" points="8,-32.8 8,-230.8 1807,-230.8 1807,-32.8 8,-32.8"/>
</g>
<g id="clust11" class="cluster">
<title>cluster_SalaryModule_imports</title>
<polygon fill="none" stroke="black" points="1567,-40.8 1567,-92.8 1799,-92.8 1799,-40.8 1567,-40.8"/>
</g>
<g id="clust12" class="cluster">
<title>cluster_SalaryModule_exports</title>
<polygon fill="none" stroke="black" points="866,-170.8 866,-222.8 1082,-222.8 1082,-170.8 866,-170.8"/>
</g>
<g id="clust2" class="cluster">
<title>cluster_SalaryModule_declarations</title>
<polygon fill="none" stroke="black" points="16,-40.8 16,-92.8 1559,-92.8 1559,-40.8 16,-40.8"/>
</g>
<!-- AbsentOvertimeSalaryComponent -->
<g id="node1" class="node">
<title>AbsentOvertimeSalaryComponent</title>
<polygon fill="#ffffb3" stroke="black" points="1550.63,-84.8 1341.37,-84.8 1341.37,-48.8 1550.63,-48.8 1550.63,-84.8"/>
<text text-anchor="middle" x="1446" y="-62.6" font-family="Times,serif" font-size="14.00">AbsentOvertimeSalaryComponent</text>
</g>
<!-- SalaryModule -->
<g id="node9" class="node">
<title>SalaryModule</title>
<polygon fill="#8dd3c7" stroke="black" points="1021.82,-149.8 1018.82,-153.8 997.82,-153.8 994.82,-149.8 926.18,-149.8 926.18,-113.8 1021.82,-113.8 1021.82,-149.8"/>
<text text-anchor="middle" x="974" y="-127.6" font-family="Times,serif" font-size="14.00">SalaryModule</text>
</g>
<!-- AbsentOvertimeSalaryComponent&#45;&gt;SalaryModule -->
<g id="edge1" class="edge">
<title>AbsentOvertimeSalaryComponent&#45;&gt;SalaryModule</title>
<path fill="none" stroke="black" d="M1446,-85.07C1446,-103.36 1446,-128.8 1446,-128.8 1446,-128.8 1031.86,-128.8 1031.86,-128.8"/>
<polygon fill="black" stroke="black" points="1031.86,-125.3 1021.86,-128.8 1031.86,-132.3 1031.86,-125.3"/>
</g>
<!-- DeductionSalaryComponent -->
<g id="node2" class="node">
<title>DeductionSalaryComponent</title>
<polygon fill="#ffffb3" stroke="black" points="1322.91,-84.8 1147.09,-84.8 1147.09,-48.8 1322.91,-48.8 1322.91,-84.8"/>
<text text-anchor="middle" x="1235" y="-62.6" font-family="Times,serif" font-size="14.00">DeductionSalaryComponent</text>
</g>
<!-- DeductionSalaryComponent&#45;&gt;SalaryModule -->
<g id="edge2" class="edge">
<title>DeductionSalaryComponent&#45;&gt;SalaryModule</title>
<path fill="none" stroke="black" d="M1235,-84.81C1235,-100.85 1235,-121.8 1235,-121.8 1235,-121.8 1031.87,-121.8 1031.87,-121.8"/>
<polygon fill="black" stroke="black" points="1031.87,-118.3 1021.87,-121.8 1031.87,-125.3 1031.87,-118.3"/>
</g>
<!-- HolidaySalaryComponent -->
<g id="node3" class="node">
<title>HolidaySalaryComponent</title>
<polygon fill="#ffffb3" stroke="black" points="1129.2,-84.8 966.8,-84.8 966.8,-48.8 1129.2,-48.8 1129.2,-84.8"/>
<text text-anchor="middle" x="1048" y="-62.6" font-family="Times,serif" font-size="14.00">HolidaySalaryComponent</text>
</g>
<!-- HolidaySalaryComponent&#45;&gt;SalaryModule -->
<g id="edge3" class="edge">
<title>HolidaySalaryComponent&#45;&gt;SalaryModule</title>
<path fill="none" stroke="black" d="M994.28,-84.91C994.28,-84.91 994.28,-103.79 994.28,-103.79"/>
<polygon fill="black" stroke="black" points="990.78,-103.79 994.28,-113.79 997.78,-103.79 990.78,-103.79"/>
</g>
<!-- PartialdayPipe -->
<g id="node4" class="node">
<title>PartialdayPipe</title>
<polygon fill="#ffffb3" stroke="black" points="948.65,-84.8 851.35,-84.8 851.35,-48.8 948.65,-48.8 948.65,-84.8"/>
<text text-anchor="middle" x="900" y="-62.6" font-family="Times,serif" font-size="14.00">PartialdayPipe</text>
</g>
<!-- PartialdayPipe&#45;&gt;SalaryModule -->
<g id="edge4" class="edge">
<title>PartialdayPipe&#45;&gt;SalaryModule</title>
<path fill="none" stroke="black" d="M937.58,-84.91C937.58,-84.91 937.58,-103.79 937.58,-103.79"/>
<polygon fill="black" stroke="black" points="934.08,-103.79 937.58,-113.79 941.08,-103.79 934.08,-103.79"/>
</g>
<!-- PermanentSalaryComponent -->
<g id="node5" class="node">
<title>PermanentSalaryComponent</title>
<polygon fill="#ffffb3" stroke="black" points="833.47,-84.8 656.53,-84.8 656.53,-48.8 833.47,-48.8 833.47,-84.8"/>
<text text-anchor="middle" x="745" y="-62.6" font-family="Times,serif" font-size="14.00">PermanentSalaryComponent</text>
</g>
<!-- PermanentSalaryComponent&#45;&gt;SalaryModule -->
<g id="edge5" class="edge">
<title>PermanentSalaryComponent&#45;&gt;SalaryModule</title>
<path fill="none" stroke="black" d="M745,-84.81C745,-100.85 745,-121.8 745,-121.8 745,-121.8 916.27,-121.8 916.27,-121.8"/>
<polygon fill="black" stroke="black" points="916.27,-125.3 926.27,-121.8 916.27,-118.3 916.27,-125.3"/>
</g>
<!-- RemoteOrDayOffSalaryComponent -->
<g id="node6" class="node">
<title>RemoteOrDayOffSalaryComponent</title>
<polygon fill="#ffffb3" stroke="black" points="638.17,-84.8 419.83,-84.8 419.83,-48.8 638.17,-48.8 638.17,-84.8"/>
<text text-anchor="middle" x="529" y="-62.6" font-family="Times,serif" font-size="14.00">RemoteOrDayOffSalaryComponent</text>
</g>
<!-- RemoteOrDayOffSalaryComponent&#45;&gt;SalaryModule -->
<g id="edge6" class="edge">
<title>RemoteOrDayOffSalaryComponent&#45;&gt;SalaryModule</title>
<path fill="none" stroke="black" d="M529,-85.07C529,-103.36 529,-128.8 529,-128.8 529,-128.8 915.95,-128.8 915.95,-128.8"/>
<polygon fill="black" stroke="black" points="915.95,-132.3 925.95,-128.8 915.95,-125.3 915.95,-132.3"/>
</g>
<!-- TableSalarySelectedComponent -->
<g id="node7" class="node">
<title>TableSalarySelectedComponent</title>
<polygon fill="#ffffb3" stroke="black" points="402.39,-84.8 205.61,-84.8 205.61,-48.8 402.39,-48.8 402.39,-84.8"/>
<text text-anchor="middle" x="304" y="-62.6" font-family="Times,serif" font-size="14.00">TableSalarySelectedComponent</text>
</g>
<!-- TableSalarySelectedComponent&#45;&gt;SalaryModule -->
<g id="edge7" class="edge">
<title>TableSalarySelectedComponent&#45;&gt;SalaryModule</title>
<path fill="none" stroke="black" d="M304,-84.93C304,-105.37 304,-135.8 304,-135.8 304,-135.8 916.08,-135.8 916.08,-135.8"/>
<polygon fill="black" stroke="black" points="916.08,-139.3 926.08,-135.8 916.08,-132.3 916.08,-139.3"/>
</g>
<!-- TransformSalaryTypePipe -->
<g id="node8" class="node">
<title>TransformSalaryTypePipe</title>
<polygon fill="#ffffb3" stroke="black" points="188.01,-84.8 23.99,-84.8 23.99,-48.8 188.01,-48.8 188.01,-84.8"/>
<text text-anchor="middle" x="106" y="-62.6" font-family="Times,serif" font-size="14.00">TransformSalaryTypePipe</text>
</g>
<!-- TransformSalaryTypePipe&#45;&gt;SalaryModule -->
<g id="edge8" class="edge">
<title>TransformSalaryTypePipe&#45;&gt;SalaryModule</title>
<path fill="none" stroke="black" d="M106,-84.81C106,-107.29 106,-142.8 106,-142.8 106,-142.8 916.1,-142.8 916.1,-142.8"/>
<polygon fill="black" stroke="black" points="916.1,-146.3 926.1,-142.8 916.1,-139.3 916.1,-146.3"/>
</g>
<!-- TableSalarySelectedComponent  -->
<g id="node12" class="node">
<title>TableSalarySelectedComponent </title>
<polygon fill="#fb8072" stroke="black" points="1073.89,-214.8 874.11,-214.8 874.11,-178.8 1073.89,-178.8 1073.89,-214.8"/>
<text text-anchor="middle" x="974" y="-192.6" font-family="Times,serif" font-size="14.00">TableSalarySelectedComponent </text>
</g>
<!-- SalaryModule&#45;&gt;TableSalarySelectedComponent  -->
<g id="edge11" class="edge">
<title>SalaryModule&#45;&gt;TableSalarySelectedComponent </title>
<path fill="none" stroke="black" stroke-dasharray="5,2" d="M974,-149.91C974,-149.91 974,-168.79 974,-168.79"/>
<polygon fill="black" stroke="black" points="970.5,-168.79 974,-178.79 977.5,-168.79 970.5,-168.79"/>
</g>
<!-- SettingModule -->
<g id="node10" class="node">
<title>SettingModule</title>
<polygon fill="#8dd3c7" stroke="black" points="1790.72,-84.8 1787.72,-88.8 1766.72,-88.8 1763.72,-84.8 1691.28,-84.8 1691.28,-48.8 1790.72,-48.8 1790.72,-84.8"/>
<text text-anchor="middle" x="1741" y="-62.6" font-family="Times,serif" font-size="14.00">SettingModule</text>
</g>
<!-- SettingModule&#45;&gt;SalaryModule -->
<g id="edge9" class="edge">
<title>SettingModule&#45;&gt;SalaryModule</title>
<path fill="none" stroke="black" d="M1741,-84.81C1741,-107.29 1741,-142.8 1741,-142.8 1741,-142.8 1031.69,-142.8 1031.69,-142.8"/>
<polygon fill="black" stroke="black" points="1031.69,-139.3 1021.69,-142.8 1031.69,-146.3 1031.69,-139.3"/>
</g>
<!-- SharedModule -->
<g id="node11" class="node">
<title>SharedModule</title>
<polygon fill="#8dd3c7" stroke="black" points="1673.43,-84.8 1670.43,-88.8 1649.43,-88.8 1646.43,-84.8 1574.57,-84.8 1574.57,-48.8 1673.43,-48.8 1673.43,-84.8"/>
<text text-anchor="middle" x="1624" y="-62.6" font-family="Times,serif" font-size="14.00">SharedModule</text>
</g>
<!-- SharedModule&#45;&gt;SalaryModule -->
<g id="edge10" class="edge">
<title>SharedModule&#45;&gt;SalaryModule</title>
<path fill="none" stroke="black" d="M1624,-84.93C1624,-105.37 1624,-135.8 1624,-135.8 1624,-135.8 1031.8,-135.8 1031.8,-135.8"/>
<polygon fill="black" stroke="black" points="1031.8,-132.3 1021.8,-135.8 1031.8,-139.3 1031.8,-132.3"/>
</g>
</g>
</svg>
