<?xml version="1.0" encoding="UTF-8" standalone="no"?>
<!DOCTYPE svg PUBLIC "-//W3C//DTD SVG 1.1//EN"
 "http://www.w3.org/Graphics/SVG/1.1/DTD/svg11.dtd">
<!-- Generated by graphviz version 3.0.0 (20220226.1711)
 -->
<!-- Title: dependencies Pages: 1 -->
<svg width="784pt" height="174pt"
 viewBox="0.00 0.00 784.00 173.80" xmlns="http://www.w3.org/2000/svg" xmlns:xlink="http://www.w3.org/1999/xlink">
<g id="graph0" class="graph" transform="scale(1 1) rotate(0) translate(4 169.8)">
<title>dependencies</title>
<polygon fill="white" stroke="transparent" points="-4,4 -4,-169.8 780,-169.8 780,4 -4,4"/>
<text text-anchor="middle" x="388" y="-8.2" font-family="sans-serif" font-size="14.00">dependencies</text>
<g id="clust1" class="cluster">
<title>cluster_RankModule</title>
<polygon fill="none" stroke="black" stroke-dasharray="1,5" points="8,-32.8 8,-157.8 768,-157.8 768,-32.8 8,-32.8"/>
</g>
<g id="clust6" class="cluster">
<title>cluster_RankModule_imports</title>
<polygon fill="none" stroke="black" points="494,-40.8 494,-92.8 760,-92.8 760,-40.8 494,-40.8"/>
</g>
<g id="clust2" class="cluster">
<title>cluster_RankModule_declarations</title>
<polygon fill="none" stroke="black" points="16,-40.8 16,-92.8 486,-92.8 486,-40.8 16,-40.8"/>
</g>
<!-- RankComponent -->
<g id="node1" class="node">
<title>RankComponent</title>
<polygon fill="#ffffb3" stroke="black" points="478.38,-84.8 367.62,-84.8 367.62,-48.8 478.38,-48.8 478.38,-84.8"/>
<text text-anchor="middle" x="423" y="-62.6" font-family="Times,serif" font-size="14.00">RankComponent</text>
</g>
<!-- RankModule -->
<g id="node4" class="node">
<title>RankModule</title>
<polygon fill="#8dd3c7" stroke="black" points="467.6,-149.8 464.6,-153.8 443.6,-153.8 440.6,-149.8 378.4,-149.8 378.4,-113.8 467.6,-113.8 467.6,-149.8"/>
<text text-anchor="middle" x="423" y="-127.6" font-family="Times,serif" font-size="14.00">RankModule</text>
</g>
<!-- RankComponent&#45;&gt;RankModule -->
<g id="edge1" class="edge">
<title>RankComponent&#45;&gt;RankModule</title>
<path fill="none" stroke="black" d="M423,-84.91C423,-84.91 423,-103.79 423,-103.79"/>
<polygon fill="black" stroke="black" points="419.5,-103.79 423,-113.79 426.5,-103.79 419.5,-103.79"/>
</g>
<!-- SettingBonusComponent -->
<g id="node2" class="node">
<title>SettingBonusComponent</title>
<polygon fill="#ffffb3" stroke="black" points="349.29,-84.8 192.71,-84.8 192.71,-48.8 349.29,-48.8 349.29,-84.8"/>
<text text-anchor="middle" x="271" y="-62.6" font-family="Times,serif" font-size="14.00">SettingBonusComponent</text>
</g>
<!-- SettingBonusComponent&#45;&gt;RankModule -->
<g id="edge2" class="edge">
<title>SettingBonusComponent&#45;&gt;RankModule</title>
<path fill="none" stroke="black" d="M271,-84.82C271,-102.17 271,-125.8 271,-125.8 271,-125.8 368.22,-125.8 368.22,-125.8"/>
<polygon fill="black" stroke="black" points="368.22,-129.3 378.22,-125.8 368.22,-122.3 368.22,-129.3"/>
</g>
<!-- SettingRankComponent -->
<g id="node3" class="node">
<title>SettingRankComponent</title>
<polygon fill="#ffffb3" stroke="black" points="174.05,-84.8 23.95,-84.8 23.95,-48.8 174.05,-48.8 174.05,-84.8"/>
<text text-anchor="middle" x="99" y="-62.6" font-family="Times,serif" font-size="14.00">SettingRankComponent</text>
</g>
<!-- SettingRankComponent&#45;&gt;RankModule -->
<g id="edge3" class="edge">
<title>SettingRankComponent&#45;&gt;RankModule</title>
<path fill="none" stroke="black" d="M99,-85.08C99,-106.12 99,-137.8 99,-137.8 99,-137.8 368.29,-137.8 368.29,-137.8"/>
<polygon fill="black" stroke="black" points="368.29,-141.3 378.29,-137.8 368.29,-134.3 368.29,-141.3"/>
</g>
<!-- RankRoutingModule -->
<g id="node5" class="node">
<title>RankRoutingModule</title>
<polygon fill="#8dd3c7" stroke="black" points="752.22,-84.8 749.22,-88.8 728.22,-88.8 725.22,-84.8 617.78,-84.8 617.78,-48.8 752.22,-48.8 752.22,-84.8"/>
<text text-anchor="middle" x="685" y="-62.6" font-family="Times,serif" font-size="14.00">RankRoutingModule</text>
</g>
<!-- RankRoutingModule&#45;&gt;RankModule -->
<g id="edge4" class="edge">
<title>RankRoutingModule&#45;&gt;RankModule</title>
<path fill="none" stroke="black" d="M685,-85.08C685,-106.12 685,-137.8 685,-137.8 685,-137.8 477.74,-137.8 477.74,-137.8"/>
<polygon fill="black" stroke="black" points="477.74,-134.3 467.74,-137.8 477.74,-141.3 477.74,-134.3"/>
</g>
<!-- SharedModule -->
<g id="node6" class="node">
<title>SharedModule</title>
<polygon fill="#8dd3c7" stroke="black" points="600.43,-84.8 597.43,-88.8 576.43,-88.8 573.43,-84.8 501.57,-84.8 501.57,-48.8 600.43,-48.8 600.43,-84.8"/>
<text text-anchor="middle" x="551" y="-62.6" font-family="Times,serif" font-size="14.00">SharedModule</text>
</g>
<!-- SharedModule&#45;&gt;RankModule -->
<g id="edge5" class="edge">
<title>SharedModule&#45;&gt;RankModule</title>
<path fill="none" stroke="black" d="M551,-84.82C551,-102.17 551,-125.8 551,-125.8 551,-125.8 477.77,-125.8 477.77,-125.8"/>
<polygon fill="black" stroke="black" points="477.77,-122.3 467.77,-125.8 477.77,-129.3 477.77,-122.3"/>
</g>
</g>
</svg>
