<?xml version="1.0" encoding="UTF-8" standalone="no"?>
<!DOCTYPE svg PUBLIC "-//W3C//DTD SVG 1.1//EN"
 "http://www.w3.org/Graphics/SVG/1.1/DTD/svg11.dtd">
<!-- Generated by graphviz version 3.0.0 (20220226.1711)
 -->
<!-- Title: dependencies Pages: 1 -->
<svg width="1965pt" height="247pt"
 viewBox="0.00 0.00 1965.00 246.80" xmlns="http://www.w3.org/2000/svg" xmlns:xlink="http://www.w3.org/1999/xlink">
<g id="graph0" class="graph" transform="scale(1 1) rotate(0) translate(4 242.8)">
<title>dependencies</title>
<polygon fill="white" stroke="transparent" points="-4,4 -4,-242.8 1961,-242.8 1961,4 -4,4"/>
<text text-anchor="middle" x="978.5" y="-8.2" font-family="sans-serif" font-size="14.00">dependencies</text>
<g id="clust1" class="cluster">
<title>cluster_EmployeeModule</title>
<polygon fill="none" stroke="black" stroke-dasharray="1,5" points="8,-32.8 8,-230.8 1949,-230.8 1949,-32.8 8,-32.8"/>
</g>
<g id="clust2" class="cluster">
<title>cluster_EmployeeModule_declarations</title>
<polygon fill="none" stroke="black" points="318,-40.8 318,-92.8 1941,-92.8 1941,-40.8 318,-40.8"/>
</g>
<g id="clust14" class="cluster">
<title>cluster_EmployeeModule_exports</title>
<polygon fill="none" stroke="black" points="952,-170.8 952,-222.8 1042,-222.8 1042,-170.8 952,-170.8"/>
</g>
<g id="clust13" class="cluster">
<title>cluster_EmployeeModule_imports</title>
<polygon fill="none" stroke="black" points="16,-40.8 16,-92.8 310,-92.8 310,-40.8 16,-40.8"/>
</g>
<!-- DetailEmployeeComponent -->
<g id="node1" class="node">
<title>DetailEmployeeComponent</title>
<polygon fill="#ffffb3" stroke="black" points="1933.3,-84.8 1760.7,-84.8 1760.7,-48.8 1933.3,-48.8 1933.3,-84.8"/>
<text text-anchor="middle" x="1847" y="-62.6" font-family="Times,serif" font-size="14.00">DetailEmployeeComponent</text>
</g>
<!-- EmployeeModule -->
<g id="node11" class="node">
<title>EmployeeModule</title>
<polygon fill="#8dd3c7" stroke="black" points="1055.31,-149.8 1052.31,-153.8 1031.31,-153.8 1028.31,-149.8 938.69,-149.8 938.69,-113.8 1055.31,-113.8 1055.31,-149.8"/>
<text text-anchor="middle" x="997" y="-127.6" font-family="Times,serif" font-size="14.00">EmployeeModule</text>
</g>
<!-- DetailEmployeeComponent&#45;&gt;EmployeeModule -->
<g id="edge1" class="edge">
<title>DetailEmployeeComponent&#45;&gt;EmployeeModule</title>
<path fill="none" stroke="black" d="M1847,-85.05C1847,-107.82 1847,-143.8 1847,-143.8 1847,-143.8 1065.42,-143.8 1065.42,-143.8"/>
<polygon fill="black" stroke="black" points="1065.42,-140.3 1055.42,-143.8 1065.42,-147.3 1065.42,-140.3"/>
</g>
<!-- EmployeeComponent -->
<g id="node2" class="node">
<title>EmployeeComponent</title>
<polygon fill="#ffffb3" stroke="black" points="1743.09,-84.8 1604.91,-84.8 1604.91,-48.8 1743.09,-48.8 1743.09,-84.8"/>
<text text-anchor="middle" x="1674" y="-62.6" font-family="Times,serif" font-size="14.00">EmployeeComponent</text>
</g>
<!-- EmployeeComponent&#45;&gt;EmployeeModule -->
<g id="edge2" class="edge">
<title>EmployeeComponent&#45;&gt;EmployeeModule</title>
<path fill="none" stroke="black" d="M1674,-85.08C1674,-106.12 1674,-137.8 1674,-137.8 1674,-137.8 1065.31,-137.8 1065.31,-137.8"/>
<polygon fill="black" stroke="black" points="1065.31,-134.3 1055.31,-137.8 1065.31,-141.3 1065.31,-134.3"/>
</g>
<!-- ExistPipe -->
<g id="node3" class="node">
<title>ExistPipe</title>
<polygon fill="#ffffb3" stroke="black" points="1586.67,-84.8 1517.33,-84.8 1517.33,-48.8 1586.67,-48.8 1586.67,-84.8"/>
<text text-anchor="middle" x="1552" y="-62.6" font-family="Times,serif" font-size="14.00">ExistPipe</text>
</g>
<!-- ExistPipe&#45;&gt;EmployeeModule -->
<g id="edge3" class="edge">
<title>ExistPipe&#45;&gt;EmployeeModule</title>
<path fill="none" stroke="black" d="M1552,-84.91C1552,-104.14 1552,-131.8 1552,-131.8 1552,-131.8 1065.35,-131.8 1065.35,-131.8"/>
<polygon fill="black" stroke="black" points="1065.35,-128.3 1055.35,-131.8 1065.35,-135.3 1065.35,-128.3"/>
</g>
<!-- FlatSalaryTypePipe -->
<g id="node4" class="node">
<title>FlatSalaryTypePipe</title>
<polygon fill="#ffffb3" stroke="black" points="1499.7,-84.8 1372.3,-84.8 1372.3,-48.8 1499.7,-48.8 1499.7,-84.8"/>
<text text-anchor="middle" x="1436" y="-62.6" font-family="Times,serif" font-size="14.00">FlatSalaryTypePipe</text>
</g>
<!-- FlatSalaryTypePipe&#45;&gt;EmployeeModule -->
<g id="edge4" class="edge">
<title>FlatSalaryTypePipe&#45;&gt;EmployeeModule</title>
<path fill="none" stroke="black" d="M1436,-84.82C1436,-102.17 1436,-125.8 1436,-125.8 1436,-125.8 1065.3,-125.8 1065.3,-125.8"/>
<polygon fill="black" stroke="black" points="1065.3,-122.3 1055.3,-125.8 1065.3,-129.3 1065.3,-122.3"/>
</g>
<!-- ModalDegreeComponent -->
<g id="node5" class="node">
<title>ModalDegreeComponent</title>
<polygon fill="#ffffb3" stroke="black" points="1354.3,-84.8 1195.7,-84.8 1195.7,-48.8 1354.3,-48.8 1354.3,-84.8"/>
<text text-anchor="middle" x="1275" y="-62.6" font-family="Times,serif" font-size="14.00">ModalDegreeComponent</text>
</g>
<!-- ModalDegreeComponent&#45;&gt;EmployeeModule -->
<g id="edge5" class="edge">
<title>ModalDegreeComponent&#45;&gt;EmployeeModule</title>
<path fill="none" stroke="black" d="M1275,-85.04C1275,-100.37 1275,-119.8 1275,-119.8 1275,-119.8 1065.28,-119.8 1065.28,-119.8"/>
<polygon fill="black" stroke="black" points="1065.28,-116.3 1055.28,-119.8 1065.28,-123.3 1065.28,-116.3"/>
</g>
<!-- ModalEmployeeComponent -->
<g id="node6" class="node">
<title>ModalEmployeeComponent</title>
<polygon fill="#ffffb3" stroke="black" points="1178.14,-84.8 1003.86,-84.8 1003.86,-48.8 1178.14,-48.8 1178.14,-84.8"/>
<text text-anchor="middle" x="1091" y="-62.6" font-family="Times,serif" font-size="14.00">ModalEmployeeComponent</text>
</g>
<!-- ModalEmployeeComponent&#45;&gt;EmployeeModule -->
<g id="edge6" class="edge">
<title>ModalEmployeeComponent&#45;&gt;EmployeeModule</title>
<path fill="none" stroke="black" d="M1029.42,-84.91C1029.42,-84.91 1029.42,-103.79 1029.42,-103.79"/>
<polygon fill="black" stroke="black" points="1025.92,-103.79 1029.42,-113.79 1032.92,-103.79 1025.92,-103.79"/>
</g>
<!-- ModalRelativeComponent -->
<g id="node7" class="node">
<title>ModalRelativeComponent</title>
<polygon fill="#ffffb3" stroke="black" points="985.03,-84.8 820.97,-84.8 820.97,-48.8 985.03,-48.8 985.03,-84.8"/>
<text text-anchor="middle" x="903" y="-62.6" font-family="Times,serif" font-size="14.00">ModalRelativeComponent</text>
</g>
<!-- ModalRelativeComponent&#45;&gt;EmployeeModule -->
<g id="edge7" class="edge">
<title>ModalRelativeComponent&#45;&gt;EmployeeModule</title>
<path fill="none" stroke="black" d="M962.06,-84.91C962.06,-84.91 962.06,-103.79 962.06,-103.79"/>
<polygon fill="black" stroke="black" points="958.56,-103.79 962.06,-113.79 965.56,-103.79 958.56,-103.79"/>
</g>
<!-- ModalUpdateContractComponent -->
<g id="node8" class="node">
<title>ModalUpdateContractComponent</title>
<polygon fill="#ffffb3" stroke="black" points="802.02,-84.8 595.98,-84.8 595.98,-48.8 802.02,-48.8 802.02,-84.8"/>
<text text-anchor="middle" x="699" y="-62.6" font-family="Times,serif" font-size="14.00">ModalUpdateContractComponent</text>
</g>
<!-- ModalUpdateContractComponent&#45;&gt;EmployeeModule -->
<g id="edge8" class="edge">
<title>ModalUpdateContractComponent&#45;&gt;EmployeeModule</title>
<path fill="none" stroke="black" d="M699,-85.04C699,-100.37 699,-119.8 699,-119.8 699,-119.8 928.84,-119.8 928.84,-119.8"/>
<polygon fill="black" stroke="black" points="928.84,-123.3 938.84,-119.8 928.84,-116.3 928.84,-123.3"/>
</g>
<!-- ProfileComponent -->
<g id="node9" class="node">
<title>ProfileComponent</title>
<polygon fill="#ffffb3" stroke="black" points="577.94,-84.8 458.06,-84.8 458.06,-48.8 577.94,-48.8 577.94,-84.8"/>
<text text-anchor="middle" x="518" y="-62.6" font-family="Times,serif" font-size="14.00">ProfileComponent</text>
</g>
<!-- ProfileComponent&#45;&gt;EmployeeModule -->
<g id="edge9" class="edge">
<title>ProfileComponent&#45;&gt;EmployeeModule</title>
<path fill="none" stroke="black" d="M518,-84.82C518,-102.17 518,-125.8 518,-125.8 518,-125.8 928.74,-125.8 928.74,-125.8"/>
<polygon fill="black" stroke="black" points="928.74,-129.3 938.74,-125.8 928.74,-122.3 928.74,-129.3"/>
</g>
<!-- WorkHistoryPipe -->
<g id="node10" class="node">
<title>WorkHistoryPipe</title>
<polygon fill="#ffffb3" stroke="black" points="440.27,-84.8 325.73,-84.8 325.73,-48.8 440.27,-48.8 440.27,-84.8"/>
<text text-anchor="middle" x="383" y="-62.6" font-family="Times,serif" font-size="14.00">WorkHistoryPipe</text>
</g>
<!-- WorkHistoryPipe&#45;&gt;EmployeeModule -->
<g id="edge10" class="edge">
<title>WorkHistoryPipe&#45;&gt;EmployeeModule</title>
<path fill="none" stroke="black" d="M383,-84.91C383,-104.14 383,-131.8 383,-131.8 383,-131.8 928.68,-131.8 928.68,-131.8"/>
<polygon fill="black" stroke="black" points="928.68,-135.3 938.68,-131.8 928.68,-128.3 928.68,-135.3"/>
</g>
<!-- ExistPipe  -->
<g id="node14" class="node">
<title>ExistPipe </title>
<polygon fill="#fb8072" stroke="black" points="1033.67,-214.8 960.33,-214.8 960.33,-178.8 1033.67,-178.8 1033.67,-214.8"/>
<text text-anchor="middle" x="997" y="-192.6" font-family="Times,serif" font-size="14.00">ExistPipe </text>
</g>
<!-- EmployeeModule&#45;&gt;ExistPipe  -->
<g id="edge13" class="edge">
<title>EmployeeModule&#45;&gt;ExistPipe </title>
<path fill="none" stroke="black" stroke-dasharray="5,2" d="M997,-149.91C997,-149.91 997,-168.79 997,-168.79"/>
<polygon fill="black" stroke="black" points="993.5,-168.79 997,-178.79 1000.5,-168.79 993.5,-168.79"/>
</g>
<!-- EmployeeRoutingModule -->
<g id="node12" class="node">
<title>EmployeeRoutingModule</title>
<polygon fill="#8dd3c7" stroke="black" points="301.93,-84.8 298.93,-88.8 277.93,-88.8 274.93,-84.8 140.07,-84.8 140.07,-48.8 301.93,-48.8 301.93,-84.8"/>
<text text-anchor="middle" x="221" y="-62.6" font-family="Times,serif" font-size="14.00">EmployeeRoutingModule</text>
</g>
<!-- EmployeeRoutingModule&#45;&gt;EmployeeModule -->
<g id="edge11" class="edge">
<title>EmployeeRoutingModule&#45;&gt;EmployeeModule</title>
<path fill="none" stroke="black" d="M221,-85.08C221,-106.12 221,-137.8 221,-137.8 221,-137.8 928.67,-137.8 928.67,-137.8"/>
<polygon fill="black" stroke="black" points="928.67,-141.3 938.67,-137.8 928.67,-134.3 928.67,-141.3"/>
</g>
<!-- SharedModule -->
<g id="node13" class="node">
<title>SharedModule</title>
<polygon fill="#8dd3c7" stroke="black" points="122.43,-84.8 119.43,-88.8 98.43,-88.8 95.43,-84.8 23.57,-84.8 23.57,-48.8 122.43,-48.8 122.43,-84.8"/>
<text text-anchor="middle" x="73" y="-62.6" font-family="Times,serif" font-size="14.00">SharedModule</text>
</g>
<!-- SharedModule&#45;&gt;EmployeeModule -->
<g id="edge12" class="edge">
<title>SharedModule&#45;&gt;EmployeeModule</title>
<path fill="none" stroke="black" d="M73,-85.05C73,-107.82 73,-143.8 73,-143.8 73,-143.8 928.5,-143.8 928.5,-143.8"/>
<polygon fill="black" stroke="black" points="928.5,-147.3 938.5,-143.8 928.5,-140.3 928.5,-147.3"/>
</g>
</g>
</svg>
