<?xml version="1.0" encoding="UTF-8" standalone="no"?>
<!DOCTYPE svg PUBLIC "-//W3C//DTD SVG 1.1//EN"
 "http://www.w3.org/Graphics/SVG/1.1/DTD/svg11.dtd">
<!-- Generated by graphviz version 3.0.0 (20220226.1711)
 -->
<!-- Title: dependencies Pages: 1 -->
<svg width="1718pt" height="174pt"
 viewBox="0.00 0.00 1718.00 173.80" xmlns="http://www.w3.org/2000/svg" xmlns:xlink="http://www.w3.org/1999/xlink">
<g id="graph0" class="graph" transform="scale(1 1) rotate(0) translate(4 169.8)">
<title>dependencies</title>
<polygon fill="white" stroke="transparent" points="-4,4 -4,-169.8 1714,-169.8 1714,4 -4,4"/>
<text text-anchor="middle" x="855" y="-8.2" font-family="sans-serif" font-size="14.00">dependencies</text>
<g id="clust1" class="cluster">
<title>cluster_OrgchartModule</title>
<polygon fill="none" stroke="black" stroke-dasharray="1,5" points="8,-32.8 8,-157.8 1702,-157.8 1702,-32.8 8,-32.8"/>
</g>
<g id="clust2" class="cluster">
<title>cluster_OrgchartModule_declarations</title>
<polygon fill="none" stroke="black" points="310,-40.8 310,-92.8 1694,-92.8 1694,-40.8 310,-40.8"/>
</g>
<g id="clust11" class="cluster">
<title>cluster_OrgchartModule_imports</title>
<polygon fill="none" stroke="black" points="16,-40.8 16,-92.8 302,-92.8 302,-40.8 16,-40.8"/>
</g>
<!-- AllowanceBranchComponent -->
<g id="node1" class="node">
<title>AllowanceBranchComponent</title>
<polygon fill="#ffffb3" stroke="black" points="1686.4,-84.8 1503.6,-84.8 1503.6,-48.8 1686.4,-48.8 1686.4,-84.8"/>
<text text-anchor="middle" x="1595" y="-62.6" font-family="Times,serif" font-size="14.00">AllowanceBranchComponent</text>
</g>
<!-- OrgchartModule -->
<g id="node9" class="node">
<title>OrgchartModule</title>
<polygon fill="#8dd3c7" stroke="black" points="886.8,-149.8 883.8,-153.8 862.8,-153.8 859.8,-149.8 777.2,-149.8 777.2,-113.8 886.8,-113.8 886.8,-149.8"/>
<text text-anchor="middle" x="832" y="-127.6" font-family="Times,serif" font-size="14.00">OrgchartModule</text>
</g>
<!-- AllowanceBranchComponent&#45;&gt;OrgchartModule -->
<g id="edge1" class="edge">
<title>AllowanceBranchComponent&#45;&gt;OrgchartModule</title>
<path fill="none" stroke="black" d="M1595,-84.81C1595,-107.29 1595,-142.8 1595,-142.8 1595,-142.8 896.87,-142.8 896.87,-142.8"/>
<polygon fill="black" stroke="black" points="896.87,-139.3 886.87,-142.8 896.87,-146.3 896.87,-139.3"/>
</g>
<!-- BranchComponent -->
<g id="node2" class="node">
<title>BranchComponent</title>
<polygon fill="#ffffb3" stroke="black" points="1485.76,-84.8 1364.24,-84.8 1364.24,-48.8 1485.76,-48.8 1485.76,-84.8"/>
<text text-anchor="middle" x="1425" y="-62.6" font-family="Times,serif" font-size="14.00">BranchComponent</text>
</g>
<!-- BranchComponent&#45;&gt;OrgchartModule -->
<g id="edge2" class="edge">
<title>BranchComponent&#45;&gt;OrgchartModule</title>
<path fill="none" stroke="black" d="M1425,-84.93C1425,-105.37 1425,-135.8 1425,-135.8 1425,-135.8 896.73,-135.8 896.73,-135.8"/>
<polygon fill="black" stroke="black" points="896.73,-132.3 886.73,-135.8 896.73,-139.3 896.73,-132.3"/>
</g>
<!-- DepartmentComponent -->
<g id="node3" class="node">
<title>DepartmentComponent</title>
<polygon fill="#ffffb3" stroke="black" points="1345.91,-84.8 1198.09,-84.8 1198.09,-48.8 1345.91,-48.8 1345.91,-84.8"/>
<text text-anchor="middle" x="1272" y="-62.6" font-family="Times,serif" font-size="14.00">DepartmentComponent</text>
</g>
<!-- DepartmentComponent&#45;&gt;OrgchartModule -->
<g id="edge3" class="edge">
<title>DepartmentComponent&#45;&gt;OrgchartModule</title>
<path fill="none" stroke="black" d="M1272,-85.07C1272,-103.36 1272,-128.8 1272,-128.8 1272,-128.8 896.84,-128.8 896.84,-128.8"/>
<polygon fill="black" stroke="black" points="896.84,-125.3 886.84,-128.8 896.84,-132.3 896.84,-125.3"/>
</g>
<!-- DetailBranchComponent -->
<g id="node4" class="node">
<title>DetailBranchComponent</title>
<polygon fill="#ffffb3" stroke="black" points="1179.97,-84.8 1024.03,-84.8 1024.03,-48.8 1179.97,-48.8 1179.97,-84.8"/>
<text text-anchor="middle" x="1102" y="-62.6" font-family="Times,serif" font-size="14.00">DetailBranchComponent</text>
</g>
<!-- DetailBranchComponent&#45;&gt;OrgchartModule -->
<g id="edge4" class="edge">
<title>DetailBranchComponent&#45;&gt;OrgchartModule</title>
<path fill="none" stroke="black" d="M1102,-84.81C1102,-100.85 1102,-121.8 1102,-121.8 1102,-121.8 896.96,-121.8 896.96,-121.8"/>
<polygon fill="black" stroke="black" points="896.96,-118.3 886.96,-121.8 896.96,-125.3 896.96,-118.3"/>
</g>
<!-- ModalBranchComponent -->
<g id="node5" class="node">
<title>ModalBranchComponent</title>
<polygon fill="#ffffb3" stroke="black" points="1006.31,-84.8 847.69,-84.8 847.69,-48.8 1006.31,-48.8 1006.31,-84.8"/>
<text text-anchor="middle" x="927" y="-62.6" font-family="Times,serif" font-size="14.00">ModalBranchComponent</text>
</g>
<!-- ModalBranchComponent&#45;&gt;OrgchartModule -->
<g id="edge5" class="edge">
<title>ModalBranchComponent&#45;&gt;OrgchartModule</title>
<path fill="none" stroke="black" d="M867.25,-84.91C867.25,-84.91 867.25,-103.79 867.25,-103.79"/>
<polygon fill="black" stroke="black" points="863.75,-103.79 867.25,-113.79 870.75,-103.79 863.75,-103.79"/>
</g>
<!-- ModalDepartmentComponent -->
<g id="node6" class="node">
<title>ModalDepartmentComponent</title>
<polygon fill="#ffffb3" stroke="black" points="829.97,-84.8 646.03,-84.8 646.03,-48.8 829.97,-48.8 829.97,-84.8"/>
<text text-anchor="middle" x="738" y="-62.6" font-family="Times,serif" font-size="14.00">ModalDepartmentComponent</text>
</g>
<!-- ModalDepartmentComponent&#45;&gt;OrgchartModule -->
<g id="edge6" class="edge">
<title>ModalDepartmentComponent&#45;&gt;OrgchartModule</title>
<path fill="none" stroke="black" d="M803.67,-84.91C803.67,-84.91 803.67,-103.79 803.67,-103.79"/>
<polygon fill="black" stroke="black" points="800.17,-103.79 803.67,-113.79 807.17,-103.79 800.17,-103.79"/>
</g>
<!-- ModalPositionComponent -->
<g id="node7" class="node">
<title>ModalPositionComponent</title>
<polygon fill="#ffffb3" stroke="black" points="627.79,-84.8 464.21,-84.8 464.21,-48.8 627.79,-48.8 627.79,-84.8"/>
<text text-anchor="middle" x="546" y="-62.6" font-family="Times,serif" font-size="14.00">ModalPositionComponent</text>
</g>
<!-- ModalPositionComponent&#45;&gt;OrgchartModule -->
<g id="edge7" class="edge">
<title>ModalPositionComponent&#45;&gt;OrgchartModule</title>
<path fill="none" stroke="black" d="M546,-84.81C546,-100.85 546,-121.8 546,-121.8 546,-121.8 767.19,-121.8 767.19,-121.8"/>
<polygon fill="black" stroke="black" points="767.19,-125.3 777.19,-121.8 767.19,-118.3 767.19,-125.3"/>
</g>
<!-- PositionComponent -->
<g id="node8" class="node">
<title>PositionComponent</title>
<polygon fill="#ffffb3" stroke="black" points="445.73,-84.8 318.27,-84.8 318.27,-48.8 445.73,-48.8 445.73,-84.8"/>
<text text-anchor="middle" x="382" y="-62.6" font-family="Times,serif" font-size="14.00">PositionComponent</text>
</g>
<!-- PositionComponent&#45;&gt;OrgchartModule -->
<g id="edge8" class="edge">
<title>PositionComponent&#45;&gt;OrgchartModule</title>
<path fill="none" stroke="black" d="M382,-85.07C382,-103.36 382,-128.8 382,-128.8 382,-128.8 767.27,-128.8 767.27,-128.8"/>
<polygon fill="black" stroke="black" points="767.27,-132.3 777.27,-128.8 767.27,-125.3 767.27,-132.3"/>
</g>
<!-- OrgchartRoutingModule -->
<g id="node10" class="node">
<title>OrgchartRoutingModule</title>
<polygon fill="#8dd3c7" stroke="black" points="294.42,-84.8 291.42,-88.8 270.42,-88.8 267.42,-84.8 139.58,-84.8 139.58,-48.8 294.42,-48.8 294.42,-84.8"/>
<text text-anchor="middle" x="217" y="-62.6" font-family="Times,serif" font-size="14.00">OrgchartRoutingModule</text>
</g>
<!-- OrgchartRoutingModule&#45;&gt;OrgchartModule -->
<g id="edge9" class="edge">
<title>OrgchartRoutingModule&#45;&gt;OrgchartModule</title>
<path fill="none" stroke="black" d="M217,-84.93C217,-105.37 217,-135.8 217,-135.8 217,-135.8 767.15,-135.8 767.15,-135.8"/>
<polygon fill="black" stroke="black" points="767.15,-139.3 777.15,-135.8 767.15,-132.3 767.15,-139.3"/>
</g>
<!-- SharedModule -->
<g id="node11" class="node">
<title>SharedModule</title>
<polygon fill="#8dd3c7" stroke="black" points="122.43,-84.8 119.43,-88.8 98.43,-88.8 95.43,-84.8 23.57,-84.8 23.57,-48.8 122.43,-48.8 122.43,-84.8"/>
<text text-anchor="middle" x="73" y="-62.6" font-family="Times,serif" font-size="14.00">SharedModule</text>
</g>
<!-- SharedModule&#45;&gt;OrgchartModule -->
<g id="edge10" class="edge">
<title>SharedModule&#45;&gt;OrgchartModule</title>
<path fill="none" stroke="black" d="M73,-84.81C73,-107.29 73,-142.8 73,-142.8 73,-142.8 767.11,-142.8 767.11,-142.8"/>
<polygon fill="black" stroke="black" points="767.11,-146.3 777.11,-142.8 767.11,-139.3 767.11,-146.3"/>
</g>
</g>
</svg>
