<?xml version="1.0" encoding="UTF-8" standalone="no"?>
<!DOCTYPE svg PUBLIC "-//W3C//DTD SVG 1.1//EN"
 "http://www.w3.org/Graphics/SVG/1.1/DTD/svg11.dtd">
<!-- Generated by graphviz version 3.0.0 (20220226.1711)
 -->
<!-- Title: dependencies Pages: 1 -->
<svg width="617pt" height="247pt"
 viewBox="0.00 0.00 617.00 246.80" xmlns="http://www.w3.org/2000/svg" xmlns:xlink="http://www.w3.org/1999/xlink">
<g id="graph0" class="graph" transform="scale(1 1) rotate(0) translate(4 242.8)">
<title>dependencies</title>
<polygon fill="white" stroke="transparent" points="-4,4 -4,-242.8 613,-242.8 613,4 -4,4"/>
<text text-anchor="middle" x="304.5" y="-8.2" font-family="sans-serif" font-size="14.00">dependencies</text>
<g id="clust1" class="cluster">
<title>cluster_OverviewHrModule</title>
<polygon fill="none" stroke="black" stroke-dasharray="1,5" points="8,-32.8 8,-230.8 601,-230.8 601,-32.8 8,-32.8"/>
</g>
<g id="clust2" class="cluster">
<title>cluster_OverviewHrModule_declarations</title>
<polygon fill="none" stroke="black" points="214,-40.8 214,-92.8 593,-92.8 593,-40.8 214,-40.8"/>
</g>
<g id="clust5" class="cluster">
<title>cluster_OverviewHrModule_imports</title>
<polygon fill="none" stroke="black" points="16,-40.8 16,-92.8 206,-92.8 206,-40.8 16,-40.8"/>
</g>
<g id="clust6" class="cluster">
<title>cluster_OverviewHrModule_exports</title>
<polygon fill="none" stroke="black" points="234,-170.8 234,-222.8 404,-222.8 404,-170.8 234,-170.8"/>
</g>
<!-- OverviewHrComponent -->
<g id="node1" class="node">
<title>OverviewHrComponent</title>
<polygon fill="#ffffb3" stroke="black" points="584.8,-84.8 433.2,-84.8 433.2,-48.8 584.8,-48.8 584.8,-84.8"/>
<text text-anchor="middle" x="509" y="-62.6" font-family="Times,serif" font-size="14.00">OverviewHrComponent</text>
</g>
<!-- OverviewHrModule -->
<g id="node3" class="node">
<title>OverviewHrModule</title>
<polygon fill="#8dd3c7" stroke="black" points="383.53,-149.8 380.53,-153.8 359.53,-153.8 356.53,-149.8 254.47,-149.8 254.47,-113.8 383.53,-113.8 383.53,-149.8"/>
<text text-anchor="middle" x="319" y="-127.6" font-family="Times,serif" font-size="14.00">OverviewHrModule</text>
</g>
<!-- OverviewHrComponent&#45;&gt;OverviewHrModule -->
<g id="edge1" class="edge">
<title>OverviewHrComponent&#45;&gt;OverviewHrModule</title>
<path fill="none" stroke="black" d="M509,-84.91C509,-104.14 509,-131.8 509,-131.8 509,-131.8 393.59,-131.8 393.59,-131.8"/>
<polygon fill="black" stroke="black" points="393.59,-128.3 383.59,-131.8 393.59,-135.3 393.59,-128.3"/>
</g>
<!-- StatisticalEmployeeComponent -->
<g id="node2" class="node">
<title>StatisticalEmployeeComponent</title>
<polygon fill="#ffffb3" stroke="black" points="415.8,-84.8 222.2,-84.8 222.2,-48.8 415.8,-48.8 415.8,-84.8"/>
<text text-anchor="middle" x="319" y="-62.6" font-family="Times,serif" font-size="14.00">StatisticalEmployeeComponent</text>
</g>
<!-- StatisticalEmployeeComponent&#45;&gt;OverviewHrModule -->
<g id="edge2" class="edge">
<title>StatisticalEmployeeComponent&#45;&gt;OverviewHrModule</title>
<path fill="none" stroke="black" d="M319,-84.91C319,-84.91 319,-103.79 319,-103.79"/>
<polygon fill="black" stroke="black" points="315.5,-103.79 319,-113.79 322.5,-103.79 315.5,-103.79"/>
</g>
<!-- OverviewHrComponent  -->
<g id="node5" class="node">
<title>OverviewHrComponent </title>
<polygon fill="#fb8072" stroke="black" points="396.3,-214.8 241.7,-214.8 241.7,-178.8 396.3,-178.8 396.3,-214.8"/>
<text text-anchor="middle" x="319" y="-192.6" font-family="Times,serif" font-size="14.00">OverviewHrComponent </text>
</g>
<!-- OverviewHrModule&#45;&gt;OverviewHrComponent  -->
<g id="edge4" class="edge">
<title>OverviewHrModule&#45;&gt;OverviewHrComponent </title>
<path fill="none" stroke="black" stroke-dasharray="5,2" d="M319,-149.91C319,-149.91 319,-168.79 319,-168.79"/>
<polygon fill="black" stroke="black" points="315.5,-168.79 319,-178.79 322.5,-168.79 315.5,-168.79"/>
</g>
<!-- OverviewHrRoutingModule -->
<g id="node4" class="node">
<title>OverviewHrRoutingModule</title>
<polygon fill="#8dd3c7" stroke="black" points="198.14,-84.8 195.14,-88.8 174.14,-88.8 171.14,-84.8 23.86,-84.8 23.86,-48.8 198.14,-48.8 198.14,-84.8"/>
<text text-anchor="middle" x="111" y="-62.6" font-family="Times,serif" font-size="14.00">OverviewHrRoutingModule</text>
</g>
<!-- OverviewHrRoutingModule&#45;&gt;OverviewHrModule -->
<g id="edge3" class="edge">
<title>OverviewHrRoutingModule&#45;&gt;OverviewHrModule</title>
<path fill="none" stroke="black" d="M111,-84.91C111,-104.14 111,-131.8 111,-131.8 111,-131.8 244.33,-131.8 244.33,-131.8"/>
<polygon fill="black" stroke="black" points="244.33,-135.3 254.33,-131.8 244.33,-128.3 244.33,-135.3"/>
</g>
</g>
</svg>
