<?xml version="1.0" encoding="UTF-8" standalone="no"?>
<!DOCTYPE svg PUBLIC "-//W3C//DTD SVG 1.1//EN"
 "http://www.w3.org/Graphics/SVG/1.1/DTD/svg11.dtd">
<!-- Generated by graphviz version 3.0.0 (20220226.1711)
 -->
<!-- Title: dependencies Pages: 1 -->
<svg width="613pt" height="247pt"
 viewBox="0.00 0.00 613.00 246.80" xmlns="http://www.w3.org/2000/svg" xmlns:xlink="http://www.w3.org/1999/xlink">
<g id="graph0" class="graph" transform="scale(1 1) rotate(0) translate(4 242.8)">
<title>dependencies</title>
<polygon fill="white" stroke="transparent" points="-4,4 -4,-242.8 609,-242.8 609,4 -4,4"/>
<text text-anchor="middle" x="302.5" y="-8.2" font-family="sans-serif" font-size="14.00">dependencies</text>
<g id="clust1" class="cluster">
<title>cluster_AppModule</title>
<polygon fill="none" stroke="black" stroke-dasharray="1,5" points="8,-32.8 8,-230.8 597,-230.8 597,-32.8 8,-32.8"/>
</g>
<g id="clust2" class="cluster">
<title>cluster_AppModule_declarations</title>
<polygon fill="none" stroke="black" points="301,-40.8 301,-92.8 589,-92.8 589,-40.8 301,-40.8"/>
</g>
<g id="clust5" class="cluster">
<title>cluster_AppModule_imports</title>
<polygon fill="none" stroke="black" points="16,-40.8 16,-92.8 293,-92.8 293,-40.8 16,-40.8"/>
</g>
<g id="clust7" class="cluster">
<title>cluster_AppModule_bootstrap</title>
<polygon fill="none" stroke="black" points="243,-170.8 243,-222.8 367,-222.8 367,-170.8 243,-170.8"/>
</g>
<!-- AppComponent -->
<g id="node1" class="node">
<title>AppComponent</title>
<polygon fill="#ffffb3" stroke="black" points="580.94,-84.8 475.06,-84.8 475.06,-48.8 580.94,-48.8 580.94,-84.8"/>
<text text-anchor="middle" x="528" y="-62.6" font-family="Times,serif" font-size="14.00">AppComponent</text>
</g>
<!-- AppModule -->
<g id="node3" class="node">
<title>AppModule</title>
<polygon fill="#8dd3c7" stroke="black" points="346.66,-149.8 343.66,-153.8 322.66,-153.8 319.66,-149.8 263.34,-149.8 263.34,-113.8 346.66,-113.8 346.66,-149.8"/>
<text text-anchor="middle" x="305" y="-127.6" font-family="Times,serif" font-size="14.00">AppModule</text>
</g>
<!-- AppComponent&#45;&gt;AppModule -->
<g id="edge1" class="edge">
<title>AppComponent&#45;&gt;AppModule</title>
<path fill="none" stroke="black" d="M528,-84.91C528,-104.14 528,-131.8 528,-131.8 528,-131.8 356.68,-131.8 356.68,-131.8"/>
<polygon fill="black" stroke="black" points="356.68,-128.3 346.68,-131.8 356.68,-135.3 356.68,-128.3"/>
</g>
<!-- PageLayoutComponent -->
<g id="node2" class="node">
<title>PageLayoutComponent</title>
<polygon fill="#ffffb3" stroke="black" points="457.2,-84.8 308.8,-84.8 308.8,-48.8 457.2,-48.8 457.2,-84.8"/>
<text text-anchor="middle" x="383" y="-62.6" font-family="Times,serif" font-size="14.00">PageLayoutComponent</text>
</g>
<!-- PageLayoutComponent&#45;&gt;AppModule -->
<g id="edge2" class="edge">
<title>PageLayoutComponent&#45;&gt;AppModule</title>
<path fill="none" stroke="black" d="M327.87,-84.91C327.87,-84.91 327.87,-103.79 327.87,-103.79"/>
<polygon fill="black" stroke="black" points="324.37,-103.79 327.87,-113.79 331.37,-103.79 324.37,-103.79"/>
</g>
<!-- AppComponent  -->
<g id="node6" class="node">
<title>AppComponent </title>
<polygon fill="#80b1d3" stroke="black" points="359.44,-214.8 250.56,-214.8 250.56,-178.8 359.44,-178.8 359.44,-214.8"/>
<text text-anchor="middle" x="305" y="-192.6" font-family="Times,serif" font-size="14.00">AppComponent </text>
</g>
<!-- AppModule&#45;&gt;AppComponent  -->
<g id="edge5" class="edge">
<title>AppModule&#45;&gt;AppComponent </title>
<path fill="none" stroke="black" stroke-dasharray="1,5" d="M305,-149.91C305,-149.91 305,-168.79 305,-168.79"/>
<polygon fill="black" stroke="black" points="301.5,-168.79 305,-178.79 308.5,-168.79 301.5,-168.79"/>
</g>
<!-- AkitaNgDevtools -->
<g id="node4" class="node">
<title>AkitaNgDevtools</title>
<polygon fill="#8dd3c7" stroke="black" points="285.27,-84.8 282.27,-88.8 261.27,-88.8 258.27,-84.8 170.73,-84.8 170.73,-48.8 285.27,-48.8 285.27,-84.8"/>
<text text-anchor="middle" x="228" y="-62.6" font-family="Times,serif" font-size="14.00">AkitaNgDevtools</text>
</g>
<!-- AkitaNgDevtools&#45;&gt;AppModule -->
<g id="edge3" class="edge">
<title>AkitaNgDevtools&#45;&gt;AppModule</title>
<path fill="none" stroke="black" d="M274.28,-84.91C274.28,-84.91 274.28,-103.79 274.28,-103.79"/>
<polygon fill="black" stroke="black" points="270.78,-103.79 274.28,-113.79 277.78,-103.79 270.78,-103.79"/>
</g>
<!-- AppRoutingModule -->
<g id="node5" class="node">
<title>AppRoutingModule</title>
<polygon fill="#8dd3c7" stroke="black" points="152.28,-84.8 149.28,-88.8 128.28,-88.8 125.28,-84.8 23.72,-84.8 23.72,-48.8 152.28,-48.8 152.28,-84.8"/>
<text text-anchor="middle" x="88" y="-62.6" font-family="Times,serif" font-size="14.00">AppRoutingModule</text>
</g>
<!-- AppRoutingModule&#45;&gt;AppModule -->
<g id="edge4" class="edge">
<title>AppRoutingModule&#45;&gt;AppModule</title>
<path fill="none" stroke="black" d="M88,-84.91C88,-104.14 88,-131.8 88,-131.8 88,-131.8 253.16,-131.8 253.16,-131.8"/>
<polygon fill="black" stroke="black" points="253.16,-135.3 263.16,-131.8 253.16,-128.3 253.16,-135.3"/>
</g>
</g>
</svg>
