<?xml version="1.0" encoding="UTF-8" standalone="no"?>
<!DOCTYPE svg PUBLIC "-//W3C//DTD SVG 1.1//EN"
 "http://www.w3.org/Graphics/SVG/1.1/DTD/svg11.dtd">
<!-- Generated by graphviz version 3.0.0 (20220226.1711)
 -->
<!-- Title: dependencies Pages: 1 -->
<svg width="1431pt" height="247pt"
 viewBox="0.00 0.00 1431.00 246.80" xmlns="http://www.w3.org/2000/svg" xmlns:xlink="http://www.w3.org/1999/xlink">
<g id="graph0" class="graph" transform="scale(1 1) rotate(0) translate(4 242.8)">
<title>dependencies</title>
<polygon fill="white" stroke="transparent" points="-4,4 -4,-242.8 1427,-242.8 1427,4 -4,4"/>
<text text-anchor="middle" x="711.5" y="-8.2" font-family="sans-serif" font-size="14.00">dependencies</text>
<g id="clust1" class="cluster">
<title>cluster_SettingModule</title>
<polygon fill="none" stroke="black" stroke-dasharray="1,5" points="8,-32.8 8,-230.8 1415,-230.8 1415,-32.8 8,-32.8"/>
</g>
<g id="clust10" class="cluster">
<title>cluster_SettingModule_imports</title>
<polygon fill="none" stroke="black" points="1131,-40.8 1131,-92.8 1407,-92.8 1407,-40.8 1131,-40.8"/>
</g>
<g id="clust11" class="cluster">
<title>cluster_SettingModule_exports</title>
<polygon fill="none" stroke="black" points="529,-170.8 529,-222.8 917,-222.8 917,-170.8 529,-170.8"/>
</g>
<g id="clust2" class="cluster">
<title>cluster_SettingModule_declarations</title>
<polygon fill="none" stroke="black" points="16,-40.8 16,-92.8 1123,-92.8 1123,-40.8 16,-40.8"/>
</g>
<!-- BlockSalaryPipe -->
<g id="node1" class="node">
<title>BlockSalaryPipe</title>
<polygon fill="#ffffb3" stroke="black" points="1115.1,-84.8 1004.9,-84.8 1004.9,-48.8 1115.1,-48.8 1115.1,-84.8"/>
<text text-anchor="middle" x="1060" y="-62.6" font-family="Times,serif" font-size="14.00">BlockSalaryPipe</text>
</g>
<!-- SettingModule -->
<g id="node8" class="node">
<title>SettingModule</title>
<polygon fill="#8dd3c7" stroke="black" points="752.72,-149.8 749.72,-153.8 728.72,-153.8 725.72,-149.8 653.28,-149.8 653.28,-113.8 752.72,-113.8 752.72,-149.8"/>
<text text-anchor="middle" x="703" y="-127.6" font-family="Times,serif" font-size="14.00">SettingModule</text>
</g>
<!-- BlockSalaryPipe&#45;&gt;SettingModule -->
<g id="edge1" class="edge">
<title>BlockSalaryPipe&#45;&gt;SettingModule</title>
<path fill="none" stroke="black" d="M1060,-85.07C1060,-103.36 1060,-128.8 1060,-128.8 1060,-128.8 762.64,-128.8 762.64,-128.8"/>
<polygon fill="black" stroke="black" points="762.64,-125.3 752.64,-128.8 762.64,-132.3 762.64,-125.3"/>
</g>
<!-- ModalSettingSalaryComponent -->
<g id="node2" class="node">
<title>ModalSettingSalaryComponent</title>
<polygon fill="#ffffb3" stroke="black" points="986.82,-84.8 793.18,-84.8 793.18,-48.8 986.82,-48.8 986.82,-84.8"/>
<text text-anchor="middle" x="890" y="-62.6" font-family="Times,serif" font-size="14.00">ModalSettingSalaryComponent</text>
</g>
<!-- ModalSettingSalaryComponent&#45;&gt;SettingModule -->
<g id="edge2" class="edge">
<title>ModalSettingSalaryComponent&#45;&gt;SettingModule</title>
<path fill="none" stroke="black" d="M851.32,-84.81C851.32,-100.85 851.32,-121.8 851.32,-121.8 851.32,-121.8 762.8,-121.8 762.8,-121.8"/>
<polygon fill="black" stroke="black" points="762.8,-118.3 752.8,-121.8 762.8,-125.3 762.8,-118.3"/>
</g>
<!-- PriceSettingSalaryPipe -->
<g id="node3" class="node">
<title>PriceSettingSalaryPipe</title>
<polygon fill="#ffffb3" stroke="black" points="775.59,-84.8 630.41,-84.8 630.41,-48.8 775.59,-48.8 775.59,-84.8"/>
<text text-anchor="middle" x="703" y="-62.6" font-family="Times,serif" font-size="14.00">PriceSettingSalaryPipe</text>
</g>
<!-- PriceSettingSalaryPipe&#45;&gt;SettingModule -->
<g id="edge3" class="edge">
<title>PriceSettingSalaryPipe&#45;&gt;SettingModule</title>
<path fill="none" stroke="black" d="M703,-84.91C703,-84.91 703,-103.79 703,-103.79"/>
<polygon fill="black" stroke="black" points="699.5,-103.79 703,-113.79 706.5,-103.79 699.5,-103.79"/>
</g>
<!-- PricesPipe -->
<g id="node4" class="node">
<title>PricesPipe</title>
<polygon fill="#ffffb3" stroke="black" points="612.6,-84.8 537.4,-84.8 537.4,-48.8 612.6,-48.8 612.6,-84.8"/>
<text text-anchor="middle" x="575" y="-62.6" font-family="Times,serif" font-size="14.00">PricesPipe</text>
</g>
<!-- PricesPipe&#45;&gt;SettingModule -->
<g id="edge4" class="edge">
<title>PricesPipe&#45;&gt;SettingModule</title>
<path fill="none" stroke="black" d="M575,-84.81C575,-100.85 575,-121.8 575,-121.8 575,-121.8 643.15,-121.8 643.15,-121.8"/>
<polygon fill="black" stroke="black" points="643.15,-125.3 653.15,-121.8 643.15,-118.3 643.15,-125.3"/>
</g>
<!-- SalaryTypePipe -->
<g id="node5" class="node">
<title>SalaryTypePipe</title>
<polygon fill="#ffffb3" stroke="black" points="519.92,-84.8 414.08,-84.8 414.08,-48.8 519.92,-48.8 519.92,-84.8"/>
<text text-anchor="middle" x="467" y="-62.6" font-family="Times,serif" font-size="14.00">SalaryTypePipe</text>
</g>
<!-- SalaryTypePipe&#45;&gt;SettingModule -->
<g id="edge5" class="edge">
<title>SalaryTypePipe&#45;&gt;SettingModule</title>
<path fill="none" stroke="black" d="M467,-85.07C467,-103.36 467,-128.8 467,-128.8 467,-128.8 643.24,-128.8 643.24,-128.8"/>
<polygon fill="black" stroke="black" points="643.24,-132.3 653.24,-128.8 643.24,-125.3 643.24,-132.3"/>
</g>
<!-- SettingSalaryComponent -->
<g id="node6" class="node">
<title>SettingSalaryComponent</title>
<polygon fill="#ffffb3" stroke="black" points="396.27,-84.8 239.73,-84.8 239.73,-48.8 396.27,-48.8 396.27,-84.8"/>
<text text-anchor="middle" x="318" y="-62.6" font-family="Times,serif" font-size="14.00">SettingSalaryComponent</text>
</g>
<!-- SettingSalaryComponent&#45;&gt;SettingModule -->
<g id="edge6" class="edge">
<title>SettingSalaryComponent&#45;&gt;SettingModule</title>
<path fill="none" stroke="black" d="M318,-84.93C318,-105.37 318,-135.8 318,-135.8 318,-135.8 643.06,-135.8 643.06,-135.8"/>
<polygon fill="black" stroke="black" points="643.06,-139.3 653.06,-135.8 643.06,-132.3 643.06,-139.3"/>
</g>
<!-- VisibleSalarySettingComponent -->
<g id="node7" class="node">
<title>VisibleSalarySettingComponent</title>
<polygon fill="#ffffb3" stroke="black" points="221.71,-84.8 24.29,-84.8 24.29,-48.8 221.71,-48.8 221.71,-84.8"/>
<text text-anchor="middle" x="123" y="-62.6" font-family="Times,serif" font-size="14.00">VisibleSalarySettingComponent</text>
</g>
<!-- VisibleSalarySettingComponent&#45;&gt;SettingModule -->
<g id="edge7" class="edge">
<title>VisibleSalarySettingComponent&#45;&gt;SettingModule</title>
<path fill="none" stroke="black" d="M123,-84.81C123,-107.29 123,-142.8 123,-142.8 123,-142.8 643.3,-142.8 643.3,-142.8"/>
<polygon fill="black" stroke="black" points="643.3,-146.3 653.3,-142.8 643.3,-139.3 643.3,-146.3"/>
</g>
<!-- PriceSettingSalaryPipe  -->
<g id="node11" class="node">
<title>PriceSettingSalaryPipe </title>
<polygon fill="#fb8072" stroke="black" points="909.09,-214.8 760.91,-214.8 760.91,-178.8 909.09,-178.8 909.09,-214.8"/>
<text text-anchor="middle" x="835" y="-192.6" font-family="Times,serif" font-size="14.00">PriceSettingSalaryPipe </text>
</g>
<!-- SettingModule&#45;&gt;PriceSettingSalaryPipe  -->
<g id="edge10" class="edge">
<title>SettingModule&#45;&gt;PriceSettingSalaryPipe </title>
<path fill="none" stroke="black" stroke-dasharray="5,2" d="M747.46,-149.91C747.46,-169.14 747.46,-196.8 747.46,-196.8 747.46,-196.8 750.75,-196.8 750.75,-196.8"/>
<polygon fill="black" stroke="black" points="750.75,-200.3 760.75,-196.8 750.75,-193.3 750.75,-200.3"/>
</g>
<!-- PricesPipe  -->
<g id="node12" class="node">
<title>PricesPipe </title>
<polygon fill="#fb8072" stroke="black" points="742.1,-214.8 663.9,-214.8 663.9,-178.8 742.1,-178.8 742.1,-214.8"/>
<text text-anchor="middle" x="703" y="-192.6" font-family="Times,serif" font-size="14.00">PricesPipe </text>
</g>
<!-- SettingModule&#45;&gt;PricesPipe  -->
<g id="edge11" class="edge">
<title>SettingModule&#45;&gt;PricesPipe </title>
<path fill="none" stroke="black" stroke-dasharray="5,2" d="M703,-149.91C703,-149.91 703,-168.79 703,-168.79"/>
<polygon fill="black" stroke="black" points="699.5,-168.79 703,-178.79 706.5,-168.79 699.5,-168.79"/>
</g>
<!-- SalaryTypePipe  -->
<g id="node13" class="node">
<title>SalaryTypePipe </title>
<polygon fill="#fb8072" stroke="black" points="645.42,-214.8 536.58,-214.8 536.58,-178.8 645.42,-178.8 645.42,-214.8"/>
<text text-anchor="middle" x="591" y="-192.6" font-family="Times,serif" font-size="14.00">SalaryTypePipe </text>
</g>
<!-- SettingModule&#45;&gt;SalaryTypePipe  -->
<g id="edge12" class="edge">
<title>SettingModule&#45;&gt;SalaryTypePipe </title>
<path fill="none" stroke="black" stroke-dasharray="5,2" d="M658.54,-149.91C658.54,-169.14 658.54,-196.8 658.54,-196.8 658.54,-196.8 655.52,-196.8 655.52,-196.8"/>
<polygon fill="black" stroke="black" points="655.52,-193.3 645.52,-196.8 655.52,-200.3 655.52,-193.3"/>
</g>
<!-- SettingRoutingModule -->
<g id="node9" class="node">
<title>SettingRoutingModule</title>
<polygon fill="#8dd3c7" stroke="black" points="1399.34,-84.8 1396.34,-88.8 1375.34,-88.8 1372.34,-84.8 1254.66,-84.8 1254.66,-48.8 1399.34,-48.8 1399.34,-84.8"/>
<text text-anchor="middle" x="1327" y="-62.6" font-family="Times,serif" font-size="14.00">SettingRoutingModule</text>
</g>
<!-- SettingRoutingModule&#45;&gt;SettingModule -->
<g id="edge8" class="edge">
<title>SettingRoutingModule&#45;&gt;SettingModule</title>
<path fill="none" stroke="black" d="M1327,-84.81C1327,-107.29 1327,-142.8 1327,-142.8 1327,-142.8 762.75,-142.8 762.75,-142.8"/>
<polygon fill="black" stroke="black" points="762.75,-139.3 752.75,-142.8 762.75,-146.3 762.75,-139.3"/>
</g>
<!-- SharedModule -->
<g id="node10" class="node">
<title>SharedModule</title>
<polygon fill="#8dd3c7" stroke="black" points="1237.43,-84.8 1234.43,-88.8 1213.43,-88.8 1210.43,-84.8 1138.57,-84.8 1138.57,-48.8 1237.43,-48.8 1237.43,-84.8"/>
<text text-anchor="middle" x="1188" y="-62.6" font-family="Times,serif" font-size="14.00">SharedModule</text>
</g>
<!-- SharedModule&#45;&gt;SettingModule -->
<g id="edge9" class="edge">
<title>SharedModule&#45;&gt;SettingModule</title>
<path fill="none" stroke="black" d="M1188,-84.93C1188,-105.37 1188,-135.8 1188,-135.8 1188,-135.8 762.62,-135.8 762.62,-135.8"/>
<polygon fill="black" stroke="black" points="762.62,-132.3 752.62,-135.8 762.62,-139.3 762.62,-132.3"/>
</g>
</g>
</svg>
